# xmcd
#
# Track frame offsets:
#	150
#	16321
#	37884
#	94365
#	124955
#	159839
#
# Disc length: 2509 seconds
#
# Revision: 0
# Processed by: cddbd v1.5.2PL0 Copyright (c) Steve Scherf et al.
# Submitted via: audiograbber 1.83.01
#
DISCID=4009cb06
DTITLE=Assembly Of Dust - 12-31-05 Paradise Rock Club CD2
DYEAR=2005
DGENRE=Country
TTITLE0=Happy New Year
TTITLE1=Southern Cross
TTITLE2=Song Beard
TTITLE3=Sinner
TTITLE4=Corpus Christi
TTITLE5=Telling Sue
EXTD=
EXTT0=
EXTT1=
EXTT2=
EXTT3=
EXTT4=
EXTT5=
PLAYORDER=
